<?xml version="1.0" standalone="no"?>
<!DOCTYPE svg PUBLIC "-//W3C//DTD SVG 20010904//EN"
 "http://www.w3.org/TR/2001/REC-SVG-20010904/DTD/svg10.dtd">
<svg version="1.0" xmlns="http://www.w3.org/2000/svg"
 width="1280.000000pt" height="456.000000pt" viewBox="0 0 1280.000000 456.000000"
 preserveAspectRatio="xMidYMid meet">

<g transform="translate(0.000000,456.000000) scale(0.100000,-0.100000)"
fill="#000000" stroke="none">
<path d="M2320 4549 c-1027 -74 -1705 -462 -1974 -1129 -64 -158 -106 -382
-105 -560 1 -144 2 -145 89 -39 41 50 119 134 174 185 462 441 1075 658 1952
691 l178 6 -46 -52 c-133 -153 -251 -415 -410 -911 l-53 -165 -133 -17 c-460
-59 -785 -188 -988 -393 -106 -107 -164 -242 -135 -317 28 -73 126 -74 441 -4
113 25 243 53 289 61 94 18 304 45 309 41 6 -7 -121 -293 -180 -406 -230 -441
-523 -694 -924 -796 -253 -64 -559 -47 -751 40 -60 28 -59 29 -38 -62 87 -369
529 -611 1045 -570 606 47 1075 435 1441 1193 97 202 141 308 210 505 l47 135
213 7 c261 8 370 21 454 53 207 77 375 281 377 455 0 101 -46 130 -222 138
-105 4 -432 -9 -588 -24 -62 -6 -63 -6 -58 17 40 180 145 584 177 676 45 133
154 362 175 370 16 6 151 -3 819 -52 1084 -81 1366 -95 2010 -102 562 -6 795
2 1110 38 760 86 1292 307 1504 625 74 111 115 233 74 220 -69 -21 -334 -79
-458 -100 -399 -67 -737 -90 -1305 -90 -779 0 -1431 48 -2580 190 -574 70
-926 109 -1175 129 -237 19 -789 27 -965 14z"/>
<path d="M9495 4490 c-150 -40 -302 -146 -375 -260 -18 -28 -72 -140 -121
-250 -188 -425 -977 -2251 -1136 -2630 -132 -316 -164 -373 -243 -437 -36 -29
-102 -71 -147 -94 -72 -37 -91 -42 -150 -43 -65 -1 -67 0 -90 33 -19 28 -23
47 -23 113 0 183 77 419 313 963 140 323 142 327 142 460 0 99 -3 116 -26 160
-35 69 -82 95 -172 95 -123 0 -256 -62 -379 -179 -38 -35 -204 -239 -375 -458
-169 -218 -313 -397 -320 -400 -6 -3 -19 -3 -27 -1 -12 2 5 54 80 243 172 436
186 478 191 585 5 88 3 98 -19 130 -35 51 -70 65 -163 65 -68 0 -90 -5 -146
-31 -71 -34 -155 -111 -195 -180 -100 -171 -382 -874 -519 -1294 -26 -80 -56
-152 -66 -161 -25 -23 -242 -113 -333 -140 -129 -37 -176 -13 -176 93 0 135
37 249 217 667 203 472 345 837 351 898 4 49 2 55 -30 87 -45 45 -118 60 -253
53 -144 -7 -225 -47 -280 -141 -13 -22 -138 -302 -278 -621 -140 -319 -269
-609 -287 -645 -87 -175 -198 -304 -312 -361 -117 -59 -192 -47 -230 38 -35
80 -51 37 387 1093 176 427 205 503 205 548 0 67 -117 113 -233 93 -161 -28
-300 -145 -425 -356 -71 -121 -310 -656 -462 -1035 -140 -349 -185 -521 -178
-674 9 -202 101 -293 304 -304 275 -14 582 107 848 334 41 35 77 64 79 64 2 0
7 -31 10 -68 6 -77 35 -167 67 -212 12 -16 42 -42 68 -57 44 -26 54 -28 167
-28 99 0 140 6 230 29 106 27 342 114 421 154 l39 20 12 -60 c26 -126 84 -172
218 -172 93 0 149 20 214 79 22 20 266 340 542 711 275 371 507 674 515 674 8
0 14 -5 14 -11 0 -6 -36 -108 -80 -226 -136 -362 -196 -604 -207 -829 -10
-216 31 -340 126 -386 43 -21 49 -21 155 -9 141 15 316 72 485 157 l123 63 -6
-62 c-12 -114 40 -167 162 -167 115 0 127 11 376 363 53 76 107 149 119 163
l22 25 -3 -80 c-6 -138 41 -270 126 -356 92 -94 184 -125 373 -125 325 0 678
135 1052 402 64 46 109 72 111 65 2 -7 12 -43 22 -81 37 -146 131 -284 244
-356 28 -18 83 -43 123 -55 362 -115 831 80 1173 488 248 295 393 617 465
1037 35 201 27 516 -15 548 -13 11 -56 26 -296 102 -318 101 -611 190 -624
190 -24 0 -236 -109 -324 -167 -57 -37 -134 -103 -223 -192 -158 -159 -240
-275 -348 -495 -38 -77 -107 -220 -154 -316 -133 -273 -191 -350 -359 -480
-92 -72 -173 -110 -324 -156 -73 -22 -110 -27 -204 -28 -101 -1 -121 2 -167
23 -110 49 -169 150 -161 270 10 131 -40 83 798 771 398 326 603 513 646 586
27 46 34 107 15 142 -36 67 -137 101 -326 109 -239 10 -368 -38 -520 -191 -96
-98 -338 -376 -635 -731 -101 -121 -188 -224 -193 -230 -13 -14 18 48 378 745
976 1892 1075 2089 1075 2137 0 69 -52 126 -143 157 -67 22 -231 20 -322 -4z
m1826 -2292 c116 -40 169 -151 169 -354 0 -188 -44 -362 -146 -574 -195 -406
-518 -676 -712 -594 -178 74 -213 381 -86 753 159 463 547 848 775 769z"/>
<path d="M11455 3916 c-42 -19 -84 -60 -101 -101 -31 -75 -6 -178 55 -226 l31
-24 -20 -75 c-36 -131 -72 -233 -107 -305 -116 -233 -218 -165 -314 209 l-20
79 35 36 c59 61 71 123 37 197 -48 106 -182 137 -268 61 -58 -51 -78 -125 -52
-194 13 -36 64 -88 99 -103 27 -11 29 -16 34 -93 3 -45 11 -210 17 -367 6
-157 14 -288 18 -292 3 -3 251 -85 551 -183 300 -97 571 -184 602 -195 l57
-18 226 292 225 293 39 -10 c55 -15 115 5 163 53 37 37 38 39 38 112 0 61 -4
81 -23 108 -80 120 -268 86 -307 -56 -9 -31 -10 -55 -2 -84 l10 -39 -87 -72
c-101 -85 -176 -135 -233 -155 -56 -20 -75 -18 -103 11 -47 46 -31 189 48 423
38 114 45 127 67 130 92 12 147 47 182 115 30 60 22 143 -18 194 -36 46 -106
83 -154 83 -147 -1 -239 -179 -156 -300 l23 -34 -40 -70 c-110 -195 -224 -330
-300 -355 -32 -11 -42 -10 -75 6 -79 39 -108 161 -92 394 5 74 9 144 10 155 0
16 14 29 53 48 102 49 143 154 98 251 -43 94 -157 141 -246 101z"/>
</g>
</svg>
